<?xml version="1.0" encoding="utf-8"?>
<!-- Generator: Adobe Illustrator 16.0.0, SVG Export Plug-In . SVG Version: 6.00 Build 0)  -->
<!DOCTYPE svg PUBLIC "-//W3C//DTD SVG 1.1//EN" "http://www.w3.org/Graphics/SVG/1.1/DTD/svg11.dtd">
<svg version="1.1" id="Layer_1" xmlns="http://www.w3.org/2000/svg" xmlns:xlink="http://www.w3.org/1999/xlink" x="0px" y="0px"
	 width="130.999px" height="81px" viewBox="0 0 130.999 81" enable-background="new 0 0 130.999 81" xml:space="preserve">
<g id="RXV7WH_1_" display="none">
	
		<image display="inline" overflow="visible" width="145" height="92" id="RXV7WH_2_" xlink:href="D7C219CC5EFBE506.html"  transform="matrix(1 0 0 1 -8.3989 -6.1138)">
	</image>
</g>
<g>
	<path fill="#DBDBDB" d="M131.101,72c0,0.324-0.684,1-1,1h-129c-0.316,0-1-0.676-1-1V1c0-0.324,0.684-1,1-1h128.798
		c0.316,0,1.201,0.887,1.201,1.212V72z M127.101,4h-123v65h123V4z M65.602,70.73h-1.203v1.212h1.203V70.73z M65.278,0.499
		c-0.07,0-0.127,0.058-0.127,0.131c0,0.071,0.057,0.13,0.127,0.13s0.127-0.059,0.127-0.13C65.405,0.557,65.348,0.499,65.278,0.499z
		 M65.948,0.563c-0.035,0-0.064,0.029-0.064,0.066c0,0.036,0.029,0.065,0.064,0.065s0.064-0.029,0.064-0.065
		C66.012,0.593,65.983,0.563,65.948,0.563z"/>
	<path fill="#DBDBDB" d="M68.103,77h-6.001v-4h6.001V77z"/>
	<path fill="#DBDBDB" d="M79.101,81h-29v-4h29V81z"/>
</g>
<rect x="4.101" y="4" fill="#F2F2F2" width="61.398" height="65"/>
<g>
	<path fill="#CCCCCC" d="M54.507,34.536c1.646,0.135,4.022-0.189,4.022-2.349c0-1.592-1.269-2.51-2.672-2.51
		c-1.917,0-2.942,1.431-2.915,3.374h-3.644c0.135-3.86,2.645-6.532,6.532-6.532c3.023,0,6.343,1.863,6.343,5.237
		c0,1.781-0.891,3.374-2.646,3.86v0.054c2.079,0.458,3.347,2.186,3.347,4.292c0,3.968-3.32,6.208-7.018,6.208
		c-4.238,0-7.099-2.537-7.018-6.883h3.644c0.081,2.052,1.107,3.725,3.32,3.725c1.728,0,3.077-1.188,3.077-2.969
		c0-2.861-2.51-2.807-4.373-2.807V34.536z"/>
	<path fill="#CCCCCC" d="M68.197,26.519h8.314c4.993,0,8.745,3.131,8.745,9.528c0,5.588-2.861,9.745-8.745,9.745h-8.314V26.519z
		 M72.436,42.229h3.779c2.456,0,4.805-1.511,4.805-5.776c0-3.887-1.35-6.371-5.561-6.371h-3.023V42.229z"/>
</g>
</svg>
