<?xml version="1.0" encoding="utf-8"?>
<!-- Generator: Adobe Illustrator 16.0.0, SVG Export Plug-In . SVG Version: 6.00 Build 0)  -->
<!DOCTYPE svg PUBLIC "-//W3C//DTD SVG 1.1//EN" "http://www.w3.org/Graphics/SVG/1.1/DTD/svg11.dtd">
<svg version="1.1" id="Layer_1" xmlns="http://www.w3.org/2000/svg" xmlns:xlink="http://www.w3.org/1999/xlink" x="0px" y="0px"
	 width="86.032px" height="107.427px" viewBox="-1.469 0 86.032 107.427" enable-background="new -1.469 0 86.032 107.427"
	 xml:space="preserve">
<g opacity="0.4">
	<g>
		<path d="M42.113,84.394c-23.039,0-41.782-18.743-41.782-41.781S19.074,0.832,42.113,0.832c23.038,0,41.782,18.743,41.782,41.781
			S65.15,84.394,42.113,84.394z M42.113,3.832c-21.384,0-38.782,17.397-38.782,38.781c0,21.384,17.397,38.781,38.782,38.781
			c21.383,0,38.782-17.397,38.782-38.781C80.894,21.229,63.496,3.832,42.113,3.832z"/>
		<path d="M63.435,42.613L30.795,61.84V23.386L63.435,42.613z"/>
	</g>
	<g>
		<path d="M23.31,98.528H20.1v-1.98h8.774v1.98h-3.21v8.729H23.31V98.528z"/>
		<path d="M28.5,99.502h2.025v1.44h0.03c0.39-0.976,1.439-1.649,2.475-1.649c0.15,0,0.33,0.029,0.465,0.074v1.979
			c-0.194-0.046-0.51-0.074-0.765-0.074c-1.561,0-2.101,1.125-2.101,2.489v3.494H28.5V99.502z"/>
		<path d="M34.245,101.888c0.12-1.994,1.905-2.595,3.646-2.595c1.545,0,3.404,0.345,3.404,2.205v4.035
			c0,0.705,0.075,1.408,0.271,1.725h-2.16c-0.075-0.24-0.135-0.495-0.15-0.75c-0.675,0.705-1.665,0.959-2.609,0.959
			c-1.47,0-2.641-0.734-2.641-2.324c0-1.755,1.32-2.176,2.641-2.354c1.305-0.195,2.52-0.15,2.52-1.021
			c0-0.914-0.63-1.051-1.38-1.051c-0.81,0-1.335,0.33-1.41,1.171H34.245L34.245,101.888z M39.164,103.463
			c-0.359,0.314-1.109,0.33-1.77,0.449c-0.66,0.135-1.26,0.359-1.26,1.141c0,0.795,0.614,0.99,1.305,0.99
			c1.665,0,1.725-1.32,1.725-1.785V103.463z"/>
		<path d="M45.136,98.303h-2.131v-1.756h2.131V98.303z M43.006,99.502h2.131v7.756h-2.131V99.502z"/>
		<path d="M46.875,96.547h2.131v10.711h-2.131V96.547z"/>
		<path d="M52.441,103.898c0.059,1.351,0.719,1.966,1.904,1.966c0.855,0,1.545-0.525,1.68-1.007H57.9
			c-0.6,1.83-1.875,2.61-3.629,2.61c-2.445,0-3.961-1.68-3.961-4.08c0-2.324,1.605-4.096,3.961-4.096
			c2.639,0,3.914,2.221,3.764,4.605L52.441,103.898L52.441,103.898z M55.906,102.547c-0.195-1.08-0.66-1.648-1.695-1.648
			c-1.35,0-1.74,1.051-1.77,1.648H55.906z"/>
		<path d="M59.295,99.502h2.025v1.44h0.031c0.389-0.976,1.439-1.649,2.475-1.649c0.15,0,0.33,0.029,0.465,0.074v1.979
			c-0.195-0.046-0.51-0.074-0.766-0.074c-1.561,0-2.1,1.125-2.1,2.489v3.494h-2.131V99.502z"/>
	</g>
</g>
<g>
	<path fill="#FFFFFF" d="M41.112,83.393C18.073,83.393-0.67,64.65-0.67,41.612c0-23.038,18.743-41.781,41.781-41.781
		c23.039,0,41.781,18.743,41.781,41.781C82.892,64.65,64.15,83.393,41.112,83.393z M41.112,2.831
		C19.728,2.831,2.33,20.228,2.33,41.612c0,21.383,17.397,38.781,38.781,38.781c21.384,0,38.781-17.397,38.781-38.781
		C79.892,20.228,62.496,2.831,41.112,2.831z"/>
	<path fill="#FFFFFF" d="M62.433,41.612L29.794,60.839V22.385L62.433,41.612z"/>
</g>
<g>
	<path fill="#FFFFFF" d="M22.31,97.527H19.1v-1.98h8.774v1.98h-3.21v8.729H22.31V97.527z"/>
	<path fill="#FFFFFF" d="M27.499,98.501h2.025v1.44h0.03c0.39-0.976,1.439-1.649,2.475-1.649c0.15,0,0.33,0.029,0.465,0.074v1.979
		c-0.194-0.046-0.51-0.074-0.765-0.074c-1.561,0-2.101,1.125-2.101,2.489v3.494h-2.13V98.501z"/>
	<path fill="#FFFFFF" d="M33.244,100.887c0.12-1.994,1.905-2.595,3.646-2.595c1.545,0,3.404,0.345,3.404,2.205v4.035
		c0,0.705,0.075,1.408,0.271,1.725h-2.16c-0.075-0.24-0.135-0.495-0.15-0.75c-0.675,0.705-1.665,0.959-2.609,0.959
		c-1.47,0-2.641-0.734-2.641-2.324c0-1.755,1.32-2.176,2.641-2.354c1.305-0.195,2.52-0.15,2.52-1.021c0-0.914-0.63-1.051-1.38-1.051
		c-0.81,0-1.335,0.33-1.41,1.171H33.244L33.244,100.887z M38.163,102.462c-0.359,0.314-1.109,0.33-1.77,0.449
		c-0.66,0.135-1.26,0.359-1.26,1.141c0,0.795,0.614,0.99,1.305,0.99c1.665,0,1.725-1.32,1.725-1.785V102.462z"/>
	<path fill="#FFFFFF" d="M44.135,97.302h-2.13v-1.756h2.13V97.302z M42.004,98.501h2.13v7.756h-2.13V98.501z"/>
	<path fill="#FFFFFF" d="M45.875,95.546h2.129v10.711h-2.129V95.546z"/>
	<path fill="#FFFFFF" d="M51.439,102.897c0.061,1.351,0.721,1.966,1.906,1.966c0.854,0,1.545-0.525,1.68-1.007H56.9
		c-0.6,1.83-1.875,2.61-3.631,2.61c-2.445,0-3.959-1.68-3.959-4.08c0-2.324,1.604-4.096,3.959-4.096
		c2.641,0,3.916,2.221,3.766,4.605L51.439,102.897L51.439,102.897z M54.904,101.546c-0.195-1.08-0.66-1.648-1.695-1.648
		c-1.35,0-1.738,1.051-1.77,1.648H54.904z"/>
	<path fill="#FFFFFF" d="M58.295,98.501h2.025v1.44h0.029c0.391-0.976,1.439-1.649,2.475-1.649c0.15,0,0.33,0.029,0.465,0.074v1.979
		c-0.193-0.046-0.51-0.074-0.764-0.074c-1.561,0-2.1,1.125-2.1,2.489v3.494h-2.131V98.501z"/>
</g>
</svg>
